# xmcd
#
# Track frame offsets: 
#        150
#        22535
#        34565
#        52368
#        65796
#        80891
#        95546
#        115389
#        131481
#        141322
#
# Disc length: 2132 seconds
#
# Revision: 0
# Processed by: cddbd v1.5.2PL0 Copyright (c) Steve Scherf et al.
# Submitted via: ExactAudioCopyFreeDBPlugin 1.0
#
DISCID=8f08520a
DTITLE=The Devil Makes Three - Longjohns, Boots And A Belt
DYEAR=2004
DGENRE=Country
TTITLE0=Never Learn
TTITLE1=North Carolina
TTITLE2=Man Tap
TTITLE3=Sweeping
TTITLE4=Bangor Mash
TTITLE5=Judgement Day
TTITLE6=Tow
TTITLE7=Black Irish
TTITLE8=Long Boots Johnson
TTITLE9=River Deep
EXTD=
EXTT0=
EXTT1=
EXTT2=
EXTT3=
EXTT4=
EXTT5=
EXTT6=
EXTT7=
EXTT8=
EXTT9=
PLAYORDER=
